# xmcd
#
# Track frame offsets:
#	150
#	39805
#	57923
#	97705
#	136608
#	170623
#	191135
#	219675
#
# Disc length: 3365 seconds
#
# Revision: 3
# Processed by: cddbd v1.5.2PL0 Copyright (c) Steve Scherf et al.
# Submitted via: audiograbber 1.83.01
#
DISCID=640d2308
DTITLE=Orquestra Filarmonica Real - Serenatas E Romances
DYEAR=1900
DGENRE=Classical
TTITLE0=Ludwig Van Beethoven - Romance Para Violino E Orquestra Nr 2 Em Fá Maio
TTITLE0=r Op 50
TTITLE1=Piotr Ilyich Tchaikovsky - Serenata Para Cordas em Dó Maior Op 48 - Val
TTITLE1=sa
TTITLE2=Piotr Ilyich Tchaikovsky - Serenata Para Cordas em Dó Maior Op 48 - Ele
TTITLE2=gia
TTITLE3=Max Bruch - Concerto Para Violino Nr 1 Em Sol Menor Op 26
TTITLE4=Johann Sebastian Bach - Concerto Para 2 Violinos E Orquestra Em Ré Meno
TTITLE4=r
TTITLE5=Antonin Dvorak - Serenata Para Cordas Em Mi Maior Op 22 - 1º Movimento
TTITLE6=Antonin Dvorak - Serenata Para Cordas Em Mi Maior Op 22 - 2º Movimento
TTITLE7=Ludwig Van Beethoven - Romance Para Violino E Orquestra Nr 1 Em Sol Mai
TTITLE7=or Op 40
EXTD=Inserted by BigBob
EXTT0=
EXTT1=
EXTT2=
EXTT3=
EXTT4=
EXTT5=
EXTT6=
EXTT7=
PLAYORDER=
